<?xml version="1.0"?>
<svg version="1.1" xmlns="http://www.w3.org/2000/svg" width="400" height="50" style=""><path fill="#de166d" d="M15.74462890625,35.1806640625q0-0.42724609375,0.29296875-0.543212890625t0.634765625-0.115966796875q0.59814453125,0,1.01318359375,0.537109375t0.787353515625,1.177978515625t0.738525390625,1.177978515625t0.86669921875,0.537109375q0.37841796875,0,0.689697265625-0.189208984375t0.537109375-0.47607421875t0.347900390625-0.64697265625t0.1220703125-0.714111328125q0-0.927734375-0.372314453125-1.91650390625t-0.9521484375-2.03857421875t-1.226806640625-2.1484375t-1.220703125-2.23388671875t-0.9521484375-2.313232421875t-0.37841796875-2.374267578125q0-1.79443359375,1.07421875-2.783203125t2.83203125-0.98876953125q0.59814453125,0,1.20849609375,0.1708984375t1.123046875,0.5126953125t0.836181640625,0.84228515625t0.323486328125,1.171875q0,0.2197265625-0.323486328125,0.286865234375t-0.469970703125,0.067138671875q-0.2197265625,0-0.47607421875-0.054931640625t-0.32958984375-0.299072265625t-0.20751953125-0.5615234375t-0.335693359375-0.592041015625t-0.47607421875-0.47607421875t-0.604248046875-0.201416015625q-0.54931640625,0-0.933837890625,0.225830078125t-0.62255859375,0.604248046875t-0.35400390625,0.848388671875t-0.115966796875,0.970458984375q0,1.171875,0.40283203125,2.362060546875t1.0009765625,2.3681640625t1.300048828125,2.325439453125t1.300048828125,2.23388671875t1.0009765625,2.1240234375t0.40283203125,1.96533203125q0,0.830078125-0.390625,1.40380859375t-0.98876953125,0.933837890625t-1.324462890625,0.52490234375t-1.422119140625,0.164794921875q-0.74462890625,0-1.52587890625-0.299072265625t-1.40380859375-0.823974609375t-1.025390625-1.226806640625t-0.40283203125-1.519775390625z M26.726928710938,32.94677734375q0-0.830078125,0.225830078125-1.59912109375t0.677490234375-1.373291015625t1.129150390625-0.96435546875t1.568603515625-0.360107421875q0.54931640625,0,1.214599609375,0.164794921875t1.251220703125,0.48828125t0.9765625,0.823974609375t0.390625,1.1474609375q0,0.30517578125-0.103759765625,0.4638671875t-0.421142578125,0.15869140625l-0.13427734375-0.0244140625q0.35400390625,0.9521484375,0.6103515625,1.953125t0.50048828125,2.001953125q0.09765625,0.1953125,0.146484375,0.347900390625t0.048828125,0.299072265625q0,0.1953125-0.10986328125,0.323486328125t-0.286865234375,0.189208984375t-0.3662109375,0.08544921875t-0.335693359375,0.0244140625q-0.52490234375,0-0.787353515625-0.18310546875t-0.37841796875-0.50048828125t-0.140380859375-0.714111328125t-0.09765625-0.799560546875q-0.146484375,0.47607421875-0.384521484375,0.927734375t-0.5615234375,0.811767578125t-0.762939453125,0.57373046875t-0.98876953125,0.213623046875q-0.8056640625,0-1.35498046875-0.4638671875t-0.885009765625-1.141357421875t-0.48828125-1.446533203125t-0.152587890625-1.42822265625z M28.460327148438,32.77587890625q0,0.45166015625,0.06103515625,0.9521484375t0.201416015625,0.98876953125t0.360107421875,0.921630859375t0.54931640625,0.762939453125q0.59814453125-0.64697265625,0.885009765625-1.57470703125t0.5126953125-1.788330078125t0.5126953125-1.47705078125t0.885009765625-0.616455078125q0.37841796875,0,0.634765625,0.13427734375q-0.1220703125-0.30517578125-0.40283203125-0.592041015625t-0.628662109375-0.52490234375t-0.72021484375-0.390625t-0.701904296875-0.152587890625q-0.09765625,0-0.225830078125,0.030517578125t-0.201416015625,0.006103515625q-0.50048828125,0.146484375-0.823974609375,0.506591796875t-0.52490234375,0.848388671875t-0.286865234375,1.0009765625t-0.08544921875,0.96435546875z M37.306396484375,35.1806640625q0-0.42724609375,0.29296875-0.543212890625t0.634765625-0.115966796875q0.59814453125,0,1.01318359375,0.537109375t0.787353515625,1.177978515625t0.738525390625,1.177978515625t0.86669921875,0.537109375q0.37841796875,0,0.689697265625-0.189208984375t0.537109375-0.47607421875t0.347900390625-0.64697265625t0.1220703125-0.714111328125q0-0.927734375-0.372314453125-1.91650390625t-0.9521484375-2.03857421875t-1.226806640625-2.1484375t-1.220703125-2.23388671875t-0.9521484375-2.313232421875t-0.37841796875-2.374267578125q0-1.79443359375,1.07421875-2.783203125t2.83203125-0.98876953125q0.59814453125,0,1.20849609375,0.1708984375t1.123046875,0.5126953125t0.836181640625,0.84228515625t0.323486328125,1.171875q0,0.2197265625-0.323486328125,0.286865234375t-0.469970703125,0.067138671875q-0.2197265625,0-0.47607421875-0.054931640625t-0.32958984375-0.299072265625t-0.20751953125-0.5615234375t-0.335693359375-0.592041015625t-0.47607421875-0.47607421875t-0.604248046875-0.201416015625q-0.54931640625,0-0.933837890625,0.225830078125t-0.62255859375,0.604248046875t-0.35400390625,0.848388671875t-0.115966796875,0.970458984375q0,1.171875,0.40283203125,2.362060546875t1.0009765625,2.3681640625t1.300048828125,2.325439453125t1.300048828125,2.23388671875t1.0009765625,2.1240234375t0.40283203125,1.96533203125q0,0.830078125-0.390625,1.40380859375t-0.98876953125,0.933837890625t-1.324462890625,0.52490234375t-1.422119140625,0.164794921875q-0.74462890625,0-1.52587890625-0.299072265625t-1.40380859375-0.823974609375t-1.025390625-1.226806640625t-0.40283203125-1.519775390625z M48.288696289062,34.27734375l0-1.1474609375q0-0.62255859375,0.030517578125-1.763916015625t0.079345703125-2.50244140625t0.13427734375-2.838134765625t0.1953125-2.789306640625t0.262451171875-2.349853515625t0.347900390625-1.5380859375q0.1220703125-0.28076171875,0.40283203125-0.35400390625t0.54931640625-0.0732421875q0.42724609375,0,0.750732421875,0.189208984375t0.323486328125,0.689697265625l-0.2197265625,0.244140625q-0.42724609375,2.81982421875-0.54931640625,5.6640625t-0.1708984375,5.6884765625q0.30517578125-0.47607421875,0.689697265625-0.933837890625t0.8544921875-0.811767578125t1.01318359375-0.567626953125t1.190185546875-0.213623046875q0.830078125,0,1.373291015625,0.50048828125t0.897216796875,1.300048828125t0.52490234375,1.788330078125t0.262451171875,1.9775390625t0.128173828125,1.873779296875t0.10986328125,1.470947265625q-0.23193359375,0.3173828125-0.68359375,0.3173828125l-0.03662109375,0q-0.1953125,0-0.42724609375-0.048828125t-0.30517578125-0.244140625l0.0244140625,0.0244140625q-0.1708984375-0.37841796875-0.23193359375-1.092529296875t-0.09765625-1.57470703125t-0.128173828125-1.763916015625t-0.274658203125-1.6357421875t-0.537109375-1.20849609375t-0.9521484375-0.50048828125l-0.0732421875,0q-0.72021484375,0-1.20849609375,0.439453125q-0.5126953125,0.4638671875-0.830078125,1.220703125t-0.48828125,1.6845703125t-0.262451171875,1.788330078125t-0.140380859375,1.5625t-0.1220703125,1.031494140625q-0.0732421875,0.28076171875-0.433349609375,0.372314453125t-0.616455078125,0.091552734375q-0.59814453125,0-0.9765625-0.341796875q-0.28076171875-0.67138671875-0.32958984375-1.67236328125t-0.048828125-1.953125z M60.22314453125,36.80419921875q0-0.30517578125,0.03662109375-0.616455078125t0.03662109375-0.616455078125l0-0.1953125q0-0.37841796875,0.311279296875-0.47607421875t0.640869140625-0.09765625q0.37841796875,0,0.726318359375,0.15869140625t0.347900390625,0.6103515625q0.0732421875,0.2197265625,0.0732421875,0.52490234375l0,0.57373046875q0,0.42724609375-0.299072265625,0.592041015625t-0.799560546875,0.164794921875q-0.35400390625,0-0.714111328125-0.128173828125t-0.360107421875-0.494384765625z M65.431518554688,36.80419921875q0-0.30517578125,0.03662109375-0.616455078125t0.03662109375-0.616455078125l0-0.1953125q0-0.37841796875,0.311279296875-0.47607421875t0.640869140625-0.09765625q0.37841796875,0,0.726318359375,0.15869140625t0.347900390625,0.6103515625q0.0732421875,0.2197265625,0.0732421875,0.52490234375l0,0.57373046875q0,0.42724609375-0.299072265625,0.592041015625t-0.799560546875,0.164794921875q-0.35400390625,0-0.714111328125-0.128173828125t-0.360107421875-0.494384765625z M70.639892578125,36.80419921875q0-0.30517578125,0.03662109375-0.616455078125t0.03662109375-0.616455078125l0-0.1953125q0-0.37841796875,0.311279296875-0.47607421875t0.640869140625-0.09765625q0.37841796875,0,0.726318359375,0.15869140625t0.347900390625,0.6103515625q0.0732421875,0.2197265625,0.0732421875,0.52490234375l0,0.57373046875q0,0.42724609375-0.299072265625,0.592041015625t-0.799560546875,0.164794921875q-0.35400390625,0-0.714111328125-0.128173828125t-0.360107421875-0.494384765625z M75.848266601562,36.80419921875q0-0.30517578125,0.03662109375-0.616455078125t0.03662109375-0.616455078125l0-0.1953125q0-0.37841796875,0.311279296875-0.47607421875t0.640869140625-0.09765625q0.37841796875,0,0.726318359375,0.15869140625t0.347900390625,0.6103515625q0.0732421875,0.2197265625,0.0732421875,0.52490234375l0,0.57373046875q0,0.42724609375-0.299072265625,0.592041015625t-0.799560546875,0.164794921875q-0.35400390625,0-0.714111328125-0.128173828125t-0.360107421875-0.494384765625z M81.056640625,36.80419921875q0-0.30517578125,0.03662109375-0.616455078125t0.03662109375-0.616455078125l0-0.1953125q0-0.37841796875,0.311279296875-0.47607421875t0.640869140625-0.09765625q0.37841796875,0,0.726318359375,0.15869140625t0.347900390625,0.6103515625q0.0732421875,0.2197265625,0.0732421875,0.52490234375l0,0.57373046875q0,0.42724609375-0.299072265625,0.592041015625t-0.799560546875,0.164794921875q-0.35400390625,0-0.714111328125-0.128173828125t-0.360107421875-0.494384765625z M86.265014648438,37.82958984375q0-0.40283203125,0.048828125-0.81787109375t0.213623046875-0.750732421875t0.47607421875-0.537109375t0.811767578125-0.201416015625q0.35400390625,0,0.5615234375,0.103759765625t0.3662109375,0.421142578125q-0.0732421875,0.42724609375-0.048828125,0.8544921875t-0.042724609375,0.775146484375t-0.3173828125,0.5615234375t-0.897216796875,0.213623046875q-0.1220703125,0-0.323486328125-0.03662109375t-0.390625-0.115966796875t-0.323486328125-0.189208984375t-0.13427734375-0.28076171875z M86.265014648438,32.75146484375q0-1.45263671875,0.09765625-2.9296875t0.213623046875-2.947998046875t0.213623046875-2.935791015625t0.09765625-2.94189453125q0-0.40283203125-0.03662109375-0.823974609375t0.03662109375-0.78125t0.323486328125-0.5859375t0.799560546875-0.225830078125q0.09765625,0,0.299072265625,0.01220703125t0.390625,0.048828125t0.323486328125,0.13427734375t0.13427734375,0.25634765625l-0.0244140625,0.0732421875q0.048828125,0.50048828125,0.054931640625,0.98876953125t0.006103515625,0.9765625q0,2.9541015625-0.164794921875,5.841064453125t-0.164794921875,5.841064453125q0,0.244140625-0.140380859375,0.396728515625t-0.323486328125,0.225830078125t-0.421142578125,0.09765625t-0.421142578125,0.0244140625q-0.1953125,0-0.421142578125-0.0244140625t-0.4150390625-0.09765625t-0.323486328125-0.225830078125t-0.13427734375-0.396728515625z M92.193603515625,37.82958984375q0-0.40283203125,0.048828125-0.81787109375t0.213623046875-0.750732421875t0.47607421875-0.537109375t0.811767578125-0.201416015625q0.35400390625,0,0.5615234375,0.103759765625t0.3662109375,0.421142578125q-0.0732421875,0.42724609375-0.048828125,0.8544921875t-0.042724609375,0.775146484375t-0.3173828125,0.5615234375t-0.897216796875,0.213623046875q-0.1220703125,0-0.323486328125-0.03662109375t-0.390625-0.115966796875t-0.323486328125-0.189208984375t-0.13427734375-0.28076171875z M92.193603515625,32.75146484375q0-1.45263671875,0.09765625-2.9296875t0.213623046875-2.947998046875t0.213623046875-2.935791015625t0.09765625-2.94189453125q0-0.40283203125-0.03662109375-0.823974609375t0.03662109375-0.78125t0.323486328125-0.5859375t0.799560546875-0.225830078125q0.09765625,0,0.299072265625,0.01220703125t0.390625,0.048828125t0.323486328125,0.13427734375t0.13427734375,0.25634765625l-0.0244140625,0.0732421875q0.048828125,0.50048828125,0.054931640625,0.98876953125t0.006103515625,0.9765625q0,2.9541015625-0.164794921875,5.841064453125t-0.164794921875,5.841064453125q0,0.244140625-0.140380859375,0.396728515625t-0.323486328125,0.225830078125t-0.421142578125,0.09765625t-0.421142578125,0.0244140625q-0.1953125,0-0.421142578125-0.0244140625t-0.4150390625-0.09765625t-0.323486328125-0.225830078125t-0.13427734375-0.396728515625z M98.122192382812,37.82958984375q0-0.40283203125,0.048828125-0.81787109375t0.213623046875-0.750732421875t0.47607421875-0.537109375t0.811767578125-0.201416015625q0.35400390625,0,0.5615234375,0.103759765625t0.3662109375,0.421142578125q-0.0732421875,0.42724609375-0.048828125,0.8544921875t-0.042724609375,0.775146484375t-0.3173828125,0.5615234375t-0.897216796875,0.213623046875q-0.1220703125,0-0.323486328125-0.03662109375t-0.390625-0.115966796875t-0.323486328125-0.189208984375t-0.13427734375-0.28076171875z M98.122192382812,32.75146484375q0-1.45263671875,0.09765625-2.9296875t0.213623046875-2.947998046875t0.213623046875-2.935791015625t0.09765625-2.94189453125q0-0.40283203125-0.03662109375-0.823974609375t0.03662109375-0.78125t0.323486328125-0.5859375t0.799560546875-0.225830078125q0.09765625,0,0.299072265625,0.01220703125t0.390625,0.048828125t0.323486328125,0.13427734375t0.13427734375,0.25634765625l-0.0244140625,0.0732421875q0.048828125,0.50048828125,0.054931640625,0.98876953125t0.006103515625,0.9765625q0,2.9541015625-0.164794921875,5.841064453125t-0.164794921875,5.841064453125q0,0.244140625-0.140380859375,0.396728515625t-0.323486328125,0.225830078125t-0.421142578125,0.09765625t-0.421142578125,0.0244140625q-0.1953125,0-0.421142578125-0.0244140625t-0.4150390625-0.09765625t-0.323486328125-0.225830078125t-0.13427734375-0.396728515625z M104.05078125,37.82958984375q0-0.40283203125,0.048828125-0.81787109375t0.213623046875-0.750732421875t0.47607421875-0.537109375t0.811767578125-0.201416015625q0.35400390625,0,0.5615234375,0.103759765625t0.3662109375,0.421142578125q-0.0732421875,0.42724609375-0.048828125,0.8544921875t-0.042724609375,0.775146484375t-0.3173828125,0.5615234375t-0.897216796875,0.213623046875q-0.1220703125,0-0.323486328125-0.03662109375t-0.390625-0.115966796875t-0.323486328125-0.189208984375t-0.13427734375-0.28076171875z M104.05078125,32.75146484375q0-1.45263671875,0.09765625-2.9296875t0.213623046875-2.947998046875t0.213623046875-2.935791015625t0.09765625-2.94189453125q0-0.40283203125-0.03662109375-0.823974609375t0.03662109375-0.78125t0.323486328125-0.5859375t0.799560546875-0.225830078125q0.09765625,0,0.299072265625,0.01220703125t0.390625,0.048828125t0.323486328125,0.13427734375t0.13427734375,0.25634765625l-0.0244140625,0.0732421875q0.048828125,0.50048828125,0.054931640625,0.98876953125t0.006103515625,0.9765625q0,2.9541015625-0.164794921875,5.841064453125t-0.164794921875,5.841064453125q0,0.244140625-0.140380859375,0.396728515625t-0.323486328125,0.225830078125t-0.421142578125,0.09765625t-0.421142578125,0.0244140625q-0.1953125,0-0.421142578125-0.0244140625t-0.4150390625-0.09765625t-0.323486328125-0.225830078125t-0.13427734375-0.396728515625z"/><path fill="#" d=""/></svg>
